<?xml version="1.0" encoding="UTF-8" standalone="no"?>
<!DOCTYPE svg PUBLIC "-//W3C//DTD SVG 1.1//EN" "http://www.w3.org/Graphics/SVG/1.1/DTD/svg11.dtd">
<svg width="100%" height="100%" viewBox="0 0 363 355" version="1.1" xmlns="http://www.w3.org/2000/svg" xmlns:xlink="http://www.w3.org/1999/xlink" xml:space="preserve" xmlns:serif="http://www.serif.com/" style="fill-rule:evenodd;clip-rule:evenodd;stroke-linecap:round;stroke-miterlimit:1.5;">
    <g transform="matrix(1,0,0,1,160,1.5)">
        <g>
            <g transform="matrix(0.141797,0,0,1,-158,-1)">
                <path d="M0,36L2535.32,36" style="fill:none;stroke:rgb(50,156,252);stroke-width:2.04px;"/>
            </g>
            <g transform="matrix(0.141797,0,0,1,-158,34)">
                <path d="M0,36L2535.32,36" style="fill:none;stroke:rgb(50,156,252);stroke-width:2.04px;"/>
            </g>
            <g transform="matrix(0.141797,0,0,1,-158,-36)">
                <path d="M0,36L2535.32,36" style="fill:none;stroke:rgb(50,156,252);stroke-width:2.04px;"/>
            </g>
            <g transform="matrix(0.141797,0,0,1,-158,105.138)">
                <path d="M0,36L2535.32,36" style="fill:none;stroke:rgb(50,156,252);stroke-width:2.04px;"/>
            </g>
            <g transform="matrix(0.141797,0,0,1,-158,140.138)">
                <path d="M0,36L2535.32,36" style="fill:none;stroke:rgb(50,156,252);stroke-width:2.04px;"/>
            </g>
            <g transform="matrix(0.141797,0,0,1,-158,70.1377)">
                <path d="M0,36L2535.32,36" style="fill:none;stroke:rgb(50,156,252);stroke-width:2.04px;"/>
            </g>
            <g transform="matrix(0.141797,0,0,1,-158,210)">
                <path d="M0,36L2535.32,36" style="fill:none;stroke:rgb(50,156,252);stroke-width:2.04px;"/>
            </g>
            <g transform="matrix(0.141797,0,0,1,-158,245)">
                <path d="M0,36L2535.32,36" style="fill:none;stroke:rgb(50,156,252);stroke-width:2.04px;"/>
            </g>
            <g transform="matrix(0.141797,0,0,1,-158,175)">
                <path d="M0,36L2535.32,36" style="fill:none;stroke:rgb(50,156,252);stroke-width:2.04px;"/>
            </g>
            <g transform="matrix(0.141797,0,0,1,-158,281.138)">
                <path d="M0,36L2535.32,36" style="fill:none;stroke:rgb(50,156,252);stroke-width:2.04px;"/>
            </g>
            <g transform="matrix(3.8334e-17,-0.141514,1,1.38499e-17,-159,362.275)">
                <path d="M71.638,36L2560,36" style="fill:none;stroke:rgb(50,156,252);stroke-width:2.04px;"/>
            </g>
            <g transform="matrix(3.8334e-17,-0.141514,1,1.38499e-17,-194,362.275)">
                <path d="M71.638,36L2560,36" style="fill:none;stroke:rgb(50,156,252);stroke-width:2.04px;"/>
            </g>
            <g transform="matrix(3.8334e-17,-0.141514,1,1.38499e-17,-123,362.275)">
                <path d="M71.638,36L2560,36" style="fill:none;stroke:rgb(50,156,252);stroke-width:2.04px;"/>
            </g>
            <g transform="matrix(3.8334e-17,-0.141514,1,1.38499e-17,-87,362.275)">
                <path d="M71.638,36L2560,36" style="fill:none;stroke:rgb(50,156,252);stroke-width:2.04px;"/>
            </g>
            <g transform="matrix(3.8334e-17,-0.141514,1,1.38499e-17,-51,362.275)">
                <path d="M71.638,36L2560,36" style="fill:none;stroke:rgb(50,156,252);stroke-width:2.04px;"/>
            </g>
            <g transform="matrix(3.8334e-17,-0.141514,1,1.38499e-17,22.5,362.275)">
                <path d="M71.638,36L2560,36" style="fill:none;stroke:rgb(50,156,252);stroke-width:2.04px;"/>
            </g>
            <g transform="matrix(3.8334e-17,-0.141514,1,1.38499e-17,-12.5,362.275)">
                <path d="M71.638,36L2560,36" style="fill:none;stroke:rgb(50,156,252);stroke-width:2.04px;"/>
            </g>
            <g transform="matrix(3.8334e-17,-0.141514,1,1.38499e-17,58.5,362.275)">
                <path d="M71.638,36L2560,36" style="fill:none;stroke:rgb(50,156,252);stroke-width:2.04px;"/>
            </g>
            <g transform="matrix(3.8334e-17,-0.141514,1,1.38499e-17,94.5,362.275)">
                <path d="M71.638,36L2560,36" style="fill:none;stroke:rgb(50,156,252);stroke-width:2.04px;"/>
            </g>
            <g transform="matrix(3.8334e-17,-0.141514,1,1.38499e-17,130.5,362.275)">
                <path d="M71.638,36L2560,36" style="fill:none;stroke:rgb(50,156,252);stroke-width:2.04px;"/>
            </g>
        </g>
    </g>
</svg>
